<?xml version="1.0" encoding="UTF-8" standalone="no"?>
<!-- Created with Inkscape (http://www.inkscape.org/) -->

<svg
   width="32mm"
   height="32mm"
   viewBox="0 0 32 32"
   version="1.1"
   id="svg1"
   xml:space="preserve"
   inkscape:version="1.3.2 (091e20e, 2023-11-25, custom)"
   sodipodi:docname="facefinal.svg"
   xmlns:inkscape="http://www.inkscape.org/namespaces/inkscape"
   xmlns:sodipodi="http://sodipodi.sourceforge.net/DTD/sodipodi-0.dtd"
   xmlns="http://www.w3.org/2000/svg"
   xmlns:svg="http://www.w3.org/2000/svg"><sodipodi:namedview
     id="namedview1"
     pagecolor="#505050"
     bordercolor="#eeeeee"
     borderopacity="1"
     inkscape:showpageshadow="0"
     inkscape:pageopacity="0"
     inkscape:pagecheckerboard="0"
     inkscape:deskcolor="#505050"
     inkscape:document-units="mm"
     showgrid="true"
     inkscape:zoom="7.8312671"
     inkscape:cx="65.378947"
     inkscape:cy="51.524229"
     inkscape:window-width="1920"
     inkscape:window-height="991"
     inkscape:window-x="-9"
     inkscape:window-y="-9"
     inkscape:window-maximized="1"
     inkscape:current-layer="layer1"><inkscape:grid
       id="grid1"
       units="mm"
       originx="0"
       originy="0"
       spacingx="0.49999999"
       spacingy="0.49999999"
       empcolor="#0099e5"
       empopacity="0.30196078"
       color="#0099e5"
       opacity="0.14901961"
       empspacing="4"
       dotted="false"
       gridanglex="30"
       gridanglez="30"
       visible="true" /></sodipodi:namedview><defs
     id="defs1"><inkscape:perspective
       sodipodi:type="inkscape:persp3d"
       inkscape:vp_x="22.429048 : 12.194342 : 0"
       inkscape:vp_y="1645.1682 : 0 : 0"
       inkscape:vp_z="1.1831635e-15 : -18.196439 : 0"
       inkscape:persp3d-origin="37.925915 : 19.320481 : 1"
       id="perspective88" /><marker
       id="DistanceX"
       orient="auto"
       refX="0.0"
       refY="0.0"
       style="overflow:visible"><path
         d="M 3,-3 L -3,3 M 0,-5 L  0,5"
         style="stroke:#000000; stroke-width:0.5"
         id="path1" /></marker><pattern
       id="Hatch"
       patternUnits="userSpaceOnUse"
       width="8"
       height="8"
       x="0"
       y="0"><path
         d="M8 4 l-4,4"
         stroke="#000000"
         stroke-width="0.25"
         linecap="square"
         id="path2" /><path
         d="M6 2 l-4,4"
         stroke="#000000"
         stroke-width="0.25"
         linecap="square"
         id="path3" /><path
         d="M4 0 l-4,4"
         stroke="#000000"
         stroke-width="0.25"
         linecap="square"
         id="path4" /></pattern><symbol
       id="*MODEL_SPACE" /><symbol
       id="*PAPER_SPACE" /></defs><g
     inkscape:label="Layer 1"
     inkscape:groupmode="layer"
     id="layer1"><g
       inkscape:label="0"
       id="g55"
       transform="matrix(0.26458333,0,0,0.26458333,16,-281.00008)"
       style="stroke:#000000;fill:none;stroke-opacity:1;stroke-width:0.37795276;stroke-dasharray:none"><path
         style="fill:none;stroke:#000000;stroke-opacity:1;stroke-width:0.37795276;stroke-dasharray:none"
         d="m 0,1069.61 v 52.91"
         id="path5" /><path
         style="fill:none;stroke:#000000;stroke-opacity:1;stroke-width:0.37795276;stroke-dasharray:none"
         d="M 0,1122.52 H -52.9134"
         id="path6" /><path
         d="m 0,1069.6063 a 52.913387,52.913387 0 0 0 -52.913387,52.9134"
         style="fill:none;stroke:#000000;stroke-opacity:1;stroke-width:0.37795276;stroke-dasharray:none"
         id="path7" /><path
         d="m 0,1075.2756 a 47.244095,47.244095 0 0 0 -47.244095,47.2441"
         style="fill:none;stroke:#000000;stroke-opacity:1;stroke-width:0.37795276;stroke-dasharray:none"
         id="path8" /><path
         style="fill:none;stroke:#000000;stroke-opacity:1;stroke-width:0.37795276;stroke-dasharray:none"
         d="M 0,1122.52 -26.4567,1076.7"
         id="path9" /><path
         style="fill:none;stroke:#000000;stroke-opacity:1;stroke-width:0.37795276;stroke-dasharray:none"
         d="M 0,1122.52 H 52.9134"
         id="path10" /><path
         style="fill:none;stroke:#000000;stroke-opacity:1;stroke-width:0.37795276;stroke-dasharray:none"
         d="m 0,1122.52 -45.8243,-26.46"
         id="path11" /><path
         style="fill:none;stroke:#000000;stroke-opacity:1;stroke-width:0.37795276;stroke-dasharray:none"
         d="M 0,1122.52 H 52.9134"
         id="path12" /><path
         d="m -37.655307,1098.8976 a 3.25928,3.25928 0 0 0 -6.51856,0 3.25928,3.25928 0 0 0 6.51856,0 z"
         style="fill:none;stroke:#000000;stroke-opacity:1;stroke-width:0.37795276;stroke-dasharray:none"
         id="path13" /><path
         d="m -20.362205,1081.6051 a 3.259843,3.259843 0 0 0 -6.519685,0 3.259843,3.259843 0 0 0 6.519685,0 z"
         style="fill:none;stroke:#000000;stroke-opacity:1;stroke-width:0.37795276;stroke-dasharray:none"
         id="path14" /><path
         d="m 3.259843,1075.2756 a 3.259843,3.259843 0 0 0 -6.519686,0 3.259843,3.259843 0 0 0 6.519686,0 z"
         style="fill:none;stroke:#000000;stroke-opacity:1;stroke-width:0.37795276;stroke-dasharray:none"
         id="path15" /><path
         d="m -43.984253,1122.5197 a 3.259843,3.259843 0 0 0 -6.519685,0 3.259843,3.259843 0 0 0 6.519685,0 z"
         style="fill:none;stroke:#000000;stroke-opacity:1;stroke-width:0.37795276;stroke-dasharray:none"
         id="path16" /><path
         d="M 47.244095,1122.5197 A 47.244095,47.244095 0 0 0 0,1075.2756"
         style="fill:none;stroke:#000000;stroke-opacity:1;stroke-width:0.37795276;stroke-dasharray:none"
         id="path17" /><path
         style="fill:none;stroke:#000000;stroke-opacity:1;stroke-width:0.37795276;stroke-dasharray:none"
         d="m 0,1122.52 4.6117,-52.71"
         id="path18" /><path
         style="fill:none;stroke:#000000;stroke-opacity:1;stroke-width:0.37795276;stroke-dasharray:none"
         d="M 0,1122.52 H 52.9134"
         id="path19" /><path
         style="fill:none;stroke:#000000;stroke-opacity:1;stroke-width:0.37795276;stroke-dasharray:none"
         d="m 0,1122.52 9.18831,-52.11"
         id="path20" /><path
         style="fill:none;stroke:#000000;stroke-opacity:1;stroke-width:0.37795276;stroke-dasharray:none"
         d="M 0,1122.52 H 52.9134"
         id="path21" /><path
         style="fill:none;stroke:#000000;stroke-opacity:1;stroke-width:0.37795276;stroke-dasharray:none"
         d="m 0,1122.52 13.695,-51.11"
         id="path22" /><path
         style="fill:none;stroke:#000000;stroke-opacity:1;stroke-width:0.37795276;stroke-dasharray:none"
         d="M 0,1122.52 H 52.9134"
         id="path23" /><path
         style="fill:none;stroke:#000000;stroke-opacity:1;stroke-width:0.37795276;stroke-dasharray:none"
         d="M 0,1122.52 18.0974,1072.8"
         id="path24" /><path
         style="fill:none;stroke:#000000;stroke-opacity:1;stroke-width:0.37795276;stroke-dasharray:none"
         d="M 0,1122.52 H 52.9134"
         id="path25" /><path
         style="fill:none;stroke:#000000;stroke-opacity:1;stroke-width:0.37795276;stroke-dasharray:none"
         d="m 0,1122.52 22.3622,-47.96"
         id="path26" /><path
         style="fill:none;stroke:#000000;stroke-opacity:1;stroke-width:0.37795276;stroke-dasharray:none"
         d="M 0,1122.52 H 52.9134"
         id="path27" /><path
         style="fill:none;stroke:#000000;stroke-opacity:1;stroke-width:0.37795276;stroke-dasharray:none"
         d="M 0,1122.52 26.4567,1076.7"
         id="path28" /><path
         style="fill:none;stroke:#000000;stroke-opacity:1;stroke-width:0.37795276;stroke-dasharray:none"
         d="M 0,1122.52 H 52.9134"
         id="path29" /><path
         style="fill:none;stroke:#000000;stroke-opacity:1;stroke-width:0.37795276;stroke-dasharray:none"
         d="m 0,1122.52 30.3499,-43.34"
         id="path30" /><path
         style="fill:none;stroke:#000000;stroke-opacity:1;stroke-width:0.37795276;stroke-dasharray:none"
         d="M 0,1122.52 H 52.9134"
         id="path31" /><path
         style="fill:none;stroke:#000000;stroke-opacity:1;stroke-width:0.37795276;stroke-dasharray:none"
         d="M 0,1122.52 37.4154,1085.1"
         id="path32" /><path
         style="fill:none;stroke:#000000;stroke-opacity:1;stroke-width:0.37795276;stroke-dasharray:none"
         d="M 0,1122.52 H 52.9134"
         id="path33" /><path
         style="fill:none;stroke:#000000;stroke-opacity:1;stroke-width:0.37795276;stroke-dasharray:none"
         d="m 0,1122.52 40.534,-34.01"
         id="path34" /><path
         style="fill:none;stroke:#000000;stroke-opacity:1;stroke-width:0.37795276;stroke-dasharray:none"
         d="M 0,1122.52 H 52.9134"
         id="path35" /><path
         style="fill:none;stroke:#000000;stroke-opacity:1;stroke-width:0.37795276;stroke-dasharray:none"
         d="m 0,1122.52 34.0121,-40.53"
         id="path36" /><path
         style="fill:none;stroke:#000000;stroke-opacity:1;stroke-width:0.37795276;stroke-dasharray:none"
         d="M 0,1122.52 H 52.9134"
         id="path37" /><path
         style="fill:none;stroke:#000000;stroke-opacity:1;stroke-width:0.37795276;stroke-dasharray:none"
         d="m 0,1122.52 47.9558,-22.36"
         id="path38" /><path
         style="fill:none;stroke:#000000;stroke-opacity:1;stroke-width:0.37795276;stroke-dasharray:none"
         d="M 0,1122.52 H 52.9134"
         id="path39" /><path
         style="fill:none;stroke:#000000;stroke-opacity:1;stroke-width:0.37795276;stroke-dasharray:none"
         d="m 0,1122.52 49.7223,-18.1"
         id="path40" /><path
         style="fill:none;stroke:#000000;stroke-opacity:1;stroke-width:0.37795276;stroke-dasharray:none"
         d="M 0,1122.52 H 52.9134"
         id="path41" /><path
         style="fill:none;stroke:#000000;stroke-opacity:1;stroke-width:0.37795276;stroke-dasharray:none"
         d="m 0,1122.52 51.1104,-13.7"
         id="path42" /><path
         style="fill:none;stroke:#000000;stroke-opacity:1;stroke-width:0.37795276;stroke-dasharray:none"
         d="M 0,1122.52 H 52.9134"
         id="path43" /><path
         style="fill:none;stroke:#000000;stroke-opacity:1;stroke-width:0.37795276;stroke-dasharray:none"
         d="m 0,1122.52 52.1095,-9.19"
         id="path44" /><path
         style="fill:none;stroke:#000000;stroke-opacity:1;stroke-width:0.37795276;stroke-dasharray:none"
         d="M 0,1122.52 H 52.9134"
         id="path45" /><path
         style="fill:none;stroke:#000000;stroke-opacity:1;stroke-width:0.37795276;stroke-dasharray:none"
         d="m 0,1122.52 52.712,-4.61"
         id="path46" /><path
         style="fill:none;stroke:#000000;stroke-opacity:1;stroke-width:0.37795276;stroke-dasharray:none"
         d="M 0,1122.52 H 52.9134"
         id="path47" /><path
         style="fill:none;stroke:#000000;stroke-opacity:1;stroke-width:0.37795276;stroke-dasharray:none"
         d="M 0,1122.52 H 52.9134"
         id="path48" /><path
         style="fill:none;stroke:#000000;stroke-opacity:1;stroke-width:0.37795276;stroke-dasharray:none"
         d="m 0,1122.52 45.8243,-26.46"
         id="path49" /><path
         style="fill:none;stroke:#000000;stroke-opacity:1;stroke-width:0.37795276;stroke-dasharray:none"
         d="M 0,1122.52 H 52.9134"
         id="path50" /><path
         style="fill:none;stroke:#000000;stroke-opacity:1;stroke-width:0.37795276;stroke-dasharray:none"
         d="m 0,1122.52 43.3441,-30.35"
         id="path51" /><path
         style="fill:none;stroke:#000000;stroke-opacity:1;stroke-width:0.37795276;stroke-dasharray:none"
         d="M 0,1122.52 H 52.9134"
         id="path52" /><path
         style="fill:none;stroke:#000000;stroke-opacity:1;stroke-width:0.37795276;stroke-dasharray:none"
         d="m 0,1122.52 v 52.91"
         id="path53" /><path
         d="m 60.472442,1122.5197 a 60.472442,60.472442 0 0 0 -120.944884,0 60.472442,60.472442 0 0 0 120.944884,0 z"
         style="fill:none;stroke:#000000;stroke-opacity:1;stroke-width:0.37795276;stroke-dasharray:none"
         id="path54" /><path
         d="M 26.456693,1122.5197 A 26.456693,26.456693 0 0 0 0,1096.063"
         style="fill:none;stroke:#000000;stroke-opacity:1;stroke-width:0.37795276;stroke-dasharray:none"
         id="path55" /></g><path
       d="m 6.5521775,11.072474 h 1.4486702 v 0.08623 H 7.4805911 v 2.118393 h 0.5202566 v 0.08623 H 6.5521775 v -0.08623 H 7.3943608 V 11.158705 H 6.5521775 Z m 1.8252095,0 h 0.1006021 l 0.623733,1.060634 0.623733,-1.060634 h 0.1006021 l -0.6740341,1.145427 0.6740341,1.145427 H 9.7254551 L 9.1017221,12.302694 8.4765519,13.363328 H 8.377387 l 0.674034,-1.145427 z"
       id="text1"
       style="font-size:2.94333px;font-family:Cherry;-inkscape-font-specification:'Cherry, Normal';stroke-width:0.224343;stroke-dashoffset:0.7"
       transform="scale(0.76361893,1.3095537)"
       aria-label="IX" /><path
       d="m 16.868431,5.1424452 h 0.231163 V 10.116184 H 16.913172 L 14.735763,5.7613663 v 4.3548177 h -0.23862 V 5.1424452 h 0.193879 l 2.177409,4.354818 z"
       id="text3"
       style="font-size:7.45688px;font-family:Zector;-inkscape-font-specification:'Zector, Normal';fill:none;stroke:#000000;stroke-width:0.0920245;stroke-dashoffset:0.7"
       transform="scale(1.0109475,0.98917104)"
       aria-label="N" /><path
       id="path56"
       style="fill:none;stroke:#000000;stroke-width:0.100814;stroke-dashoffset:0.7"
       inkscape:transform-center-y="-0.039422438"
       transform="matrix(1.0003969,0,0,0.98353243,-0.00634932,-1.52244)"
       d="m 16,27 1.732051,1 0,2 L 16,31 l -1.732051,-1 0,-2 z" /><path
       d="m 26.378047,17.499914 h -0.267854 q -0.254462,0 -0.436007,-0.227728 -0.180058,-0.227729 -0.180058,-0.549562 h 0.08928 q 0,0.27478 0.153273,0.470515 0.15476,0.193852 0.373508,0.193852 h 0.267854 q 0.21577,0 0.370532,-0.193852 0.156248,-0.193851 0.156248,-0.470515 0,-0.276662 -0.156248,-0.470515 -0.154762,-0.195733 -0.370532,-0.195733 h -0.404755 v -0.112918 h 0.404757 q 0.21577,0 0.37053,-0.193851 0.156249,-0.193852 0.156249,-0.470514 0,-0.276664 -0.156249,-0.470515 -0.156247,-0.195734 -0.37053,-0.195734 h -0.267854 q -0.245533,0 -0.385414,0.186323 -0.139881,0.184442 -0.141361,0.479926 h -0.08927 q 0,-0.321833 0.180057,-0.549562 0.181546,-0.22961 0.436008,-0.22961 h 0.267854 q 0.258927,0 0.437494,0.227728 0.17857,0.225847 0.17857,0.564618 0,0.242785 -0.110112,0.432872 -0.110113,0.190087 -0.276784,0.274781 0.168153,0.08469 0.276783,0.280426 0.110112,0.193852 0.110112,0.442284 0,0.318068 -0.181547,0.54768 -0.180056,0.22961 -0.434517,0.22961 z"
       id="text56"
       style="font-size:2.78949px;font-family:Cherry;-inkscape-font-specification:'Cherry, Normal';stroke-width:0.261235;stroke-dashoffset:0.7"
       aria-label="3" /></g></svg>
